<?xml version="1.0" encoding="utf-8"?>
<!-- Generator: Adobe Illustrator 22.0.1, SVG Export Plug-In . SVG Version: 6.00 Build 0)  -->
<svg version="1.1" id="Vrstva_1" xmlns="http://www.w3.org/2000/svg" xmlns:xlink="http://www.w3.org/1999/xlink" x="0px" y="0px"
	 viewBox="0 0 181.5 181.5" style="enable-background:new 0 0 181.5 181.5;" xml:space="preserve">
<style type="text/css">
	.st0{fill:url(#SVGID_1_);}
	.st1{fill:#424242;}
	.st2{fill:#FFFFFF;}
	.st3{fill:none;}
	.st4{fill:url(#SVGID_2_);}
	.st5{fill:url(#SVGID_3_);}
</style>
<g>
	<circle class="st3" cx="90.8" cy="90.8" r="90.8"/>
	<linearGradient id="SVGID_1_" gradientUnits="userSpaceOnUse" x1="17.957" y1="159.2931" x2="168.95" y2="17.8072">
		<stop  offset="0" style="stop-color:#0097FF"/>
		<stop  offset="1" style="stop-color:#36DBE1"/>
	</linearGradient>
	<path class="st0" d="M94,0.1C72.3-0.7,52.4,6.2,36.4,18.2c-6.8,5.1-7.2,15.2-0.9,20.9l0,0c4.9,4.4,12.2,4.8,17.4,0.8
		c10.9-8.5,24.5-13.5,39.4-13.5c17.8,0,34.9,7.5,47,20.5c4.4,4.7,4.8,12.2,0.3,16.9c-4.9,5.2-13,5-17.7-0.1
		c-7.6-8.3-18.4-13.1-29.6-13.1c-22.1,0-40.1,18-40.1,40.1c0,22.1,18,40.1,40.1,40.1c11.3,0,22.1-4.8,29.7-13.1
		c3.6-4,9.5-5.1,14.2-2.6c7.5,3.9,8.8,13.3,3.6,19c-12.2,13.3-29.5,20.9-47.5,20.9c-14.8,0-28.4-5-39.3-13.5
		c-5.2-4-12.5-3.6-17.4,0.8l0,0c-6.4,5.8-5.8,15.9,1.1,21.1c15.1,11.3,33.8,18,54.1,18c49.8,0,90.2-40.2,90.6-89.9
		C181.9,42.4,142.9,1.7,94,0.1z M92.3,113.1c-12.4,0-22.5-10.1-22.5-22.5c0-12.4,10.1-22.5,22.5-22.5c12.4,0,22.5,10.1,22.5,22.5
		C114.8,103.1,104.8,113.1,92.3,113.1z"/>
</g>
</svg>
